<?xml version="1.0" encoding="UTF-8" standalone="no"?>
<!DOCTYPE svg PUBLIC "-//W3C//DTD SVG 1.1//EN"
 "http://www.w3.org/Graphics/SVG/1.1/DTD/svg11.dtd">
<!-- Generated by graphviz version 2.38.0 (20140413.2041)
 -->
<!-- Title: models_diagram Pages: 1 -->
<svg width="398pt" height="158pt"
 viewBox="0.00 0.00 397.90 158.00" xmlns="http://www.w3.org/2000/svg" xmlns:xlink="http://www.w3.org/1999/xlink">
<g id="graph0" class="graph" transform="scale(1 1) rotate(0) translate(4 154)">
<title>models_diagram</title>
<polygon fill="none" stroke="none" points="-4,4 -4,-154 393.896,-154 393.896,4 -4,4"/>
<!-- _diagram_info -->
<g id="node1" class="node"><title>_diagram_info</title>
<text text-anchor="start" x="8" y="-135.6" font-family="Times,serif" font-size="13.00">Models diagram</text>
<text text-anchor="start" x="8" y="-121.6" font-family="Times,serif" font-size="13.00">Date: Oct 28 2016 &#45; 20:53</text>
<text text-anchor="start" x="8" y="-107.6" font-family="Times,serif" font-size="13.00">Migration version: 20161028235201</text>
<text text-anchor="start" x="8" y="-93.6" font-family="Times,serif" font-size="13.00">Generated by RailRoady 1.5.2</text>
<text text-anchor="start" x="8" y="-79.6" font-family="Times,serif" font-size="13.00">http://railroady.prestonlee.com</text>
</g>
<!-- User -->
<g id="node2" class="node"><title>User</title>
<ellipse fill="none" stroke="black" cx="259" cy="-111" rx="27.0966" ry="18"/>
<text text-anchor="middle" x="259" y="-107.3" font-family="Times,serif" font-size="14.00">User</text>
</g>
<!-- Item -->
<g id="node4" class="node"><title>Item</title>
<ellipse fill="none" stroke="black" cx="303" cy="-18" rx="27.0966" ry="18"/>
<text text-anchor="middle" x="303" y="-14.3" font-family="Times,serif" font-size="14.00">Item</text>
</g>
<!-- User&#45;&gt;Item -->
<g id="edge1" class="edge"><title>User&#45;&gt;Item</title>
<path fill="none" stroke="#5569ba" d="M270.454,-86.3102C276.614,-73.5711 284.218,-57.8442 290.527,-44.7965"/>
<ellipse fill="none" stroke="#5569ba" cx="268.608" cy="-90.1299" rx="4.00002" ry="4.00002"/>
<polygon fill="#5569ba" stroke="#5569ba" points="290.7,-44.4378 299.105,-37.3938 292.877,-39.9364 295.053,-35.4349 295.053,-35.4349 295.053,-35.4349 292.877,-39.9364 291.002,-33.4761 290.7,-44.4378 290.7,-44.4378"/>
</g>
<!-- Category -->
<g id="node3" class="node"><title>Category</title>
<ellipse fill="none" stroke="black" cx="347" cy="-111" rx="42.7926" ry="18"/>
<text text-anchor="middle" x="347" y="-107.3" font-family="Times,serif" font-size="14.00">Category</text>
</g>
<!-- Category&#45;&gt;Item -->
<g id="edge2" class="edge"><title>Category&#45;&gt;Item</title>
<path fill="none" stroke="#164f28" d="M335.336,-85.8765C329.177,-73.139 321.62,-57.509 315.36,-44.5631"/>
<ellipse fill="none" stroke="#164f28" cx="337.188" cy="-89.7081" rx="4.00002" ry="4.00002"/>
<polygon fill="#164f28" stroke="#164f28" points="315.224,-44.2817 314.922,-33.3199 313.048,-39.7802 310.871,-35.2788 310.871,-35.2788 310.871,-35.2788 313.048,-39.7802 306.82,-37.2377 315.224,-44.2817 315.224,-44.2817"/>
</g>
</g>
</svg>
