<?xml version="1.0" encoding="UTF-8" standalone="no"?>
<!DOCTYPE svg PUBLIC "-//W3C//DTD SVG 1.1//EN"
 "http://www.w3.org/Graphics/SVG/1.1/DTD/svg11.dtd">
<!-- Generated by graphviz version 2.38.0 (20140413.2041)
 -->
<!-- Title: models_diagram Pages: 1 -->
<svg width="514pt" height="318pt"
 viewBox="0.00 0.00 514.00 318.00" xmlns="http://www.w3.org/2000/svg" xmlns:xlink="http://www.w3.org/1999/xlink">
<g id="graph0" class="graph" transform="scale(1 1) rotate(0) translate(4 314)">
<title>models_diagram</title>
<polygon fill="none" stroke="none" points="-4,4 -4,-314 510,-314 510,4 -4,4"/>
<!-- User -->
<g id="node1" class="node"><title>User</title>
<path fill="none" stroke="black" d="M12,-203.5C12,-203.5 232,-203.5 232,-203.5 238,-203.5 244,-209.5 244,-215.5 244,-215.5 244,-297.5 244,-297.5 244,-303.5 238,-309.5 232,-309.5 232,-309.5 12,-309.5 12,-309.5 6,-309.5 0,-303.5 0,-297.5 0,-297.5 0,-215.5 0,-215.5 0,-209.5 6,-203.5 12,-203.5"/>
<text text-anchor="middle" x="122" y="-294.3" font-family="Times,serif" font-size="14.00">User</text>
<polyline fill="none" stroke="black" points="0,-286.5 244,-286.5 "/>
<text text-anchor="start" x="8" y="-271.3" font-family="Times,serif" font-size="14.00">id :integer</text>
<text text-anchor="start" x="8" y="-256.3" font-family="Times,serif" font-size="14.00">name :character varying</text>
<text text-anchor="start" x="8" y="-241.3" font-family="Times,serif" font-size="14.00">email :character varying</text>
<text text-anchor="start" x="8" y="-226.3" font-family="Times,serif" font-size="14.00">created_at :timestamp without time zone</text>
<text text-anchor="start" x="8" y="-211.3" font-family="Times,serif" font-size="14.00">updated_at :timestamp without time zone</text>
</g>
<!-- Item -->
<g id="node3" class="node"><title>Item</title>
<path fill="none" stroke="black" d="M143,-0.5C143,-0.5 363,-0.5 363,-0.5 369,-0.5 375,-6.5 375,-12.5 375,-12.5 375,-154.5 375,-154.5 375,-160.5 369,-166.5 363,-166.5 363,-166.5 143,-166.5 143,-166.5 137,-166.5 131,-160.5 131,-154.5 131,-154.5 131,-12.5 131,-12.5 131,-6.5 137,-0.5 143,-0.5"/>
<text text-anchor="middle" x="253" y="-151.3" font-family="Times,serif" font-size="14.00">Item</text>
<polyline fill="none" stroke="black" points="131,-143.5 375,-143.5 "/>
<text text-anchor="start" x="139" y="-128.3" font-family="Times,serif" font-size="14.00">id :integer</text>
<text text-anchor="start" x="139" y="-113.3" font-family="Times,serif" font-size="14.00">name :character varying</text>
<text text-anchor="start" x="139" y="-98.3" font-family="Times,serif" font-size="14.00">serial_number :integer</text>
<text text-anchor="start" x="139" y="-83.3" font-family="Times,serif" font-size="14.00">size :integer</text>
<text text-anchor="start" x="139" y="-68.3" font-family="Times,serif" font-size="14.00">description :text</text>
<text text-anchor="start" x="139" y="-53.3" font-family="Times,serif" font-size="14.00">category_id :integer</text>
<text text-anchor="start" x="139" y="-38.3" font-family="Times,serif" font-size="14.00">created_at :timestamp without time zone</text>
<text text-anchor="start" x="139" y="-23.3" font-family="Times,serif" font-size="14.00">updated_at :timestamp without time zone</text>
<text text-anchor="start" x="139" y="-8.3" font-family="Times,serif" font-size="14.00">user_id :integer</text>
</g>
<!-- User&#45;&gt;Item -->
<g id="edge1" class="edge"><title>User&#45;&gt;Item</title>
<path fill="none" stroke="#d59c56" d="M167.083,-196.651C172.529,-189.542 178.185,-182.159 183.877,-174.729"/>
<ellipse fill="none" stroke="#d59c56" cx="164.449" cy="-200.09" rx="4.00002" ry="4.00002"/>
<polygon fill="#d59c56" stroke="#d59c56" points="183.979,-174.597 193.632,-169.395 187.019,-170.627 190.06,-166.658 190.06,-166.658 190.06,-166.658 187.019,-170.627 186.488,-163.922 183.979,-174.597 183.979,-174.597"/>
</g>
<!-- Category -->
<g id="node2" class="node"><title>Category</title>
<path fill="none" stroke="black" d="M274,-211C274,-211 494,-211 494,-211 500,-211 506,-217 506,-223 506,-223 506,-290 506,-290 506,-296 500,-302 494,-302 494,-302 274,-302 274,-302 268,-302 262,-296 262,-290 262,-290 262,-223 262,-223 262,-217 268,-211 274,-211"/>
<text text-anchor="middle" x="384" y="-286.8" font-family="Times,serif" font-size="14.00">Category</text>
<polyline fill="none" stroke="black" points="262,-279 506,-279 "/>
<text text-anchor="start" x="270" y="-263.8" font-family="Times,serif" font-size="14.00">id :integer</text>
<text text-anchor="start" x="270" y="-248.8" font-family="Times,serif" font-size="14.00">name :character varying</text>
<text text-anchor="start" x="270" y="-233.8" font-family="Times,serif" font-size="14.00">created_at :timestamp without time zone</text>
<text text-anchor="start" x="270" y="-218.8" font-family="Times,serif" font-size="14.00">updated_at :timestamp without time zone</text>
</g>
<!-- Category&#45;&gt;Item -->
<g id="edge2" class="edge"><title>Category&#45;&gt;Item</title>
<path fill="none" stroke="#f65823" d="M344.619,-204.095C337.446,-194.732 329.774,-184.716 322.035,-174.615"/>
<ellipse fill="none" stroke="#f65823" cx="347.149" cy="-207.396" rx="4.00002" ry="4.00002"/>
<polygon fill="#f65823" stroke="#f65823" points="321.905,-174.444 319.395,-163.769 318.864,-170.475 315.823,-166.506 315.823,-166.506 315.823,-166.506 318.864,-170.475 312.251,-169.242 321.905,-174.444 321.905,-174.444"/>
</g>
</g>
</svg>
